<svg width="28" height="28" viewBox="0 0 28 28" fill="none" xmlns="http://www.w3.org/2000/svg">
<path d="M26.6633 19.2023C26.6633 19.3875 26.6349 19.5656 26.5829 19.7327C26.5458 20.2222 26.4899 20.476 26.3701 20.7455L26.3425 20.8062L26.2503 21.0348C24.7173 24.6887 20.2429 26.9539 14.7612 26.9539C14.6318 26.9539 14.5037 26.9285 14.3841 26.879C14.2646 26.8295 14.1559 26.7569 14.0644 26.6654C13.9729 26.5739 13.9004 26.4653 13.8508 26.3458C13.8013 26.2262 13.7758 26.0981 13.7758 25.9687C13.7758 25.8393 13.8013 25.7112 13.8508 25.5916C13.9004 25.4721 13.9729 25.3635 14.0644 25.272C14.1559 25.1805 14.2646 25.1079 14.3841 25.0584C14.5037 25.0089 14.6318 24.9835 14.7612 24.9835C19.1142 24.9835 22.6026 23.4048 24.0742 20.9757H22.017C21.5467 20.9757 21.0956 20.7888 20.7631 20.4563C20.4305 20.1237 20.2437 19.6726 20.2437 19.2023V13.9058C20.2437 13.4355 20.4305 12.9844 20.7631 12.6519C21.0956 12.3193 21.5467 12.1325 22.017 12.1325H24.4186C23.3278 7.31205 19.1119 3.72511 14.0849 3.72511C9.05961 3.72511 4.84371 7.31205 3.75289 12.1325H5.90695C6.37728 12.1325 6.82834 12.3193 7.16091 12.6519C7.49348 12.9844 7.68032 13.4355 7.68032 13.9058V19.2023C7.68032 19.6726 7.49348 20.1237 7.16091 20.4563C6.82834 20.7888 6.37728 20.9757 5.90695 20.9757H3.28236C2.81203 20.9757 2.36097 20.7888 2.0284 20.4563C1.69582 20.1237 1.50899 19.6726 1.50899 19.2023V13.9058C1.50899 13.7703 1.52396 13.6379 1.55234 13.5118C2.09538 6.93057 7.49589 1.75391 14.0865 1.75391C20.6772 1.75391 26.0761 6.929 26.6184 13.5086C26.6475 13.6363 26.6633 13.7687 26.6633 13.905V19.2023ZM5.70991 14.1029H3.49043C3.48728 14.1856 3.48413 14.2684 3.48255 14.3519L3.4794 14.6018V19.0053L5.70991 19.0061V14.1029ZM24.6818 14.1029H22.2149V19.0061H24.6456L24.6558 18.6435L24.6929 16.2609V14.6018C24.6929 14.4347 24.6889 14.2684 24.6818 14.1029Z" fill="#FF6699"/>
</svg>
