<svg width="44" height="44" viewBox="0 0 44 44" fill="none" xmlns="http://www.w3.org/2000/svg">
<g filter="url(#filter0_d_1522_25494)">
<rect x="2" y="1" width="40" height="40" rx="20" fill="url(#paint0_linear_1522_25494)"/>
</g>
<mask id="mask0_1522_25494" style="mask-type:alpha" maskUnits="userSpaceOnUse" x="2" y="1" width="40" height="40">
<rect x="2" y="1" width="40" height="40" rx="20" fill="url(#paint1_linear_1522_25494)"/>
</mask>
<g mask="url(#mask0_1522_25494)">
<rect x="6" y="12.0957" width="30.4762" height="25.9048" rx="2.28571" fill="#9072E1"/>
<circle cx="21.238" cy="15.6508" r="9.65079" fill="url(#paint2_linear_1522_25494)"/>
<circle cx="21.238" cy="15.6503" r="7.11905" fill="url(#paint3_linear_1522_25494)" stroke="#E6C39B"/>
<path d="M20.9782 20.2229C21.4338 20.2229 21.8015 19.8541 21.8015 19.3996V17.7552H23.4592C23.918 17.7552 24.2869 17.3863 24.2869 16.9296C24.2869 16.4752 23.918 16.1042 23.4592 16.1042H21.8015V15.2786H23.4592C23.918 15.2786 24.2869 14.9109 24.2869 14.4542C24.2869 13.9986 23.918 13.6298 23.4592 13.6298H22.2131L23.3515 12.4892C23.6732 12.1675 23.6732 11.645 23.3515 11.3211C23.0299 10.9995 22.5063 10.9995 22.1846 11.3223L21.0924 12.4156L19.999 11.3223C19.6774 10.9995 19.1548 10.9995 18.8321 11.3211C18.5093 11.645 18.5093 12.1675 18.8321 12.4892L19.9715 13.6298H18.5082C18.0537 13.6298 17.6827 13.9986 17.6827 14.4542C17.6827 14.9109 18.0537 15.2786 18.5082 15.2786H20.1516V16.1042H18.5082C18.0537 16.1042 17.6827 16.4752 17.6827 16.9296C17.6827 17.3863 18.0537 17.7552 18.5082 17.7552H20.1516V19.3996C20.1527 19.8541 20.5226 20.2229 20.9782 20.2229Z" fill="#8353A9"/>
<path d="M6 13.6196C6 14.7417 6.90964 15.6514 8.03175 15.6514H34.1905C35.4528 15.6514 36.4762 16.6747 36.4762 17.9371V35.7149C36.4762 36.9772 35.4528 38.0006 34.1905 38.0006H8.28571C7.02335 38.0006 6 36.9772 6 35.7149V13.6196Z" fill="url(#paint4_linear_1522_25494)"/>
<g filter="url(#filter1_d_1522_25494)">
<path d="M24.7938 26.3169C24.7938 24.0727 26.6131 22.2534 28.8573 22.2534H35.7145C36.9768 22.2534 38.0002 23.2768 38.0002 24.5391V28.0947C38.0002 29.3571 36.9768 30.3804 35.7145 30.3804H28.8573C26.6131 30.3804 24.7938 28.5611 24.7938 26.3169Z" fill="url(#paint5_linear_1522_25494)"/>
</g>
<circle cx="28.8571" cy="26.3173" r="1.52381" fill="white"/>
</g>
<g filter="url(#filter2_d_1522_25494)">
<rect x="2.3" y="1.3" width="39.4" height="39.4" rx="19.7" stroke="url(#paint6_linear_1522_25494)" stroke-width="0.6" shape-rendering="crispEdges"/>
</g>
<defs>
<filter id="filter0_d_1522_25494" x="0" y="0" width="44" height="44" filterUnits="userSpaceOnUse" color-interpolation-filters="sRGB">
<feFlood flood-opacity="0" result="BackgroundImageFix"/>
<feColorMatrix in="SourceAlpha" type="matrix" values="0 0 0 0 0 0 0 0 0 0 0 0 0 0 0 0 0 0 127 0" result="hardAlpha"/>
<feOffset dy="1"/>
<feGaussianBlur stdDeviation="1"/>
<feComposite in2="hardAlpha" operator="out"/>
<feColorMatrix type="matrix" values="0 0 0 0 0.741176 0 0 0 0 0.564706 0 0 0 0 0.996078 0 0 0 1 0"/>
<feBlend mode="normal" in2="BackgroundImageFix" result="effect1_dropShadow_1522_25494"/>
<feBlend mode="normal" in="SourceGraphic" in2="effect1_dropShadow_1522_25494" result="shape"/>
</filter>
<filter id="filter1_d_1522_25494" x="23.0796" y="21.682" width="16.6349" height="11.5555" filterUnits="userSpaceOnUse" color-interpolation-filters="sRGB">
<feFlood flood-opacity="0" result="BackgroundImageFix"/>
<feColorMatrix in="SourceAlpha" type="matrix" values="0 0 0 0 0 0 0 0 0 0 0 0 0 0 0 0 0 0 127 0" result="hardAlpha"/>
<feOffset dy="1.14286"/>
<feGaussianBlur stdDeviation="0.857143"/>
<feComposite in2="hardAlpha" operator="out"/>
<feColorMatrix type="matrix" values="0 0 0 0 0 0 0 0 0 0 0 0 0 0 0 0 0 0 0.25 0"/>
<feBlend mode="normal" in2="BackgroundImageFix" result="effect1_dropShadow_1522_25494"/>
<feBlend mode="normal" in="SourceGraphic" in2="effect1_dropShadow_1522_25494" result="shape"/>
</filter>
<filter id="filter2_d_1522_25494" x="0" y="0" width="44" height="44" filterUnits="userSpaceOnUse" color-interpolation-filters="sRGB">
<feFlood flood-opacity="0" result="BackgroundImageFix"/>
<feColorMatrix in="SourceAlpha" type="matrix" values="0 0 0 0 0 0 0 0 0 0 0 0 0 0 0 0 0 0 127 0" result="hardAlpha"/>
<feOffset dy="1"/>
<feGaussianBlur stdDeviation="1"/>
<feComposite in2="hardAlpha" operator="out"/>
<feColorMatrix type="matrix" values="0 0 0 0 0.741176 0 0 0 0 0.564706 0 0 0 0 0.996078 0 0 0 1 0"/>
<feBlend mode="normal" in2="BackgroundImageFix" result="effect1_dropShadow_1522_25494"/>
<feBlend mode="normal" in="SourceGraphic" in2="effect1_dropShadow_1522_25494" result="shape"/>
</filter>
<linearGradient id="paint0_linear_1522_25494" x1="22" y1="1" x2="22" y2="41" gradientUnits="userSpaceOnUse">
<stop stop-color="#F9F8FF"/>
<stop offset="1" stop-color="#CFB7FF"/>
</linearGradient>
<linearGradient id="paint1_linear_1522_25494" x1="22" y1="1" x2="22" y2="41" gradientUnits="userSpaceOnUse">
<stop stop-color="#F0EDFE"/>
<stop offset="1" stop-color="#BEA2F7"/>
</linearGradient>
<linearGradient id="paint2_linear_1522_25494" x1="21.238" y1="6" x2="21.238" y2="25.3016" gradientUnits="userSpaceOnUse">
<stop stop-color="#F7E9DC"/>
<stop offset="1" stop-color="#DFC19D"/>
</linearGradient>
<linearGradient id="paint3_linear_1522_25494" x1="21.238" y1="8.03125" x2="21.238" y2="23.2693" gradientUnits="userSpaceOnUse">
<stop stop-color="#F7E9DC"/>
<stop offset="1" stop-color="#DFC19D"/>
</linearGradient>
<linearGradient id="paint4_linear_1522_25494" x1="6.61237" y1="12.9025" x2="28.5826" y2="42.6591" gradientUnits="userSpaceOnUse">
<stop stop-color="#FD9AFF"/>
<stop offset="1" stop-color="#9882FD"/>
</linearGradient>
<linearGradient id="paint5_linear_1522_25494" x1="31.397" y1="22.2534" x2="31.397" y2="30.3804" gradientUnits="userSpaceOnUse">
<stop stop-color="#F2DEFF"/>
<stop offset="1" stop-color="#F6ACFF"/>
</linearGradient>
<linearGradient id="paint6_linear_1522_25494" x1="22" y1="1" x2="22" y2="41" gradientUnits="userSpaceOnUse">
<stop stop-color="white" stop-opacity="0"/>
<stop offset="1" stop-color="white"/>
</linearGradient>
</defs>
</svg>
