<svg width="44" height="44" viewBox="0 0 44 44" fill="none" xmlns="http://www.w3.org/2000/svg">
<g filter="url(#filter0_d_1522_25527)">
<rect x="2" y="1" width="40" height="40" rx="20" fill="url(#paint0_linear_1522_25527)"/>
</g>
<mask id="mask0_1522_25527" style="mask-type:alpha" maskUnits="userSpaceOnUse" x="2" y="1" width="40" height="40">
<rect x="2" y="1" width="40" height="40" rx="20" fill="url(#paint1_linear_1522_25527)"/>
</mask>
<g mask="url(#mask0_1522_25527)">
<rect x="9.00024" y="9.0957" width="26" height="24.659" rx="2.28571" fill="#9072E1"/>
<rect x="6.76196" y="12.0957" width="30.4762" height="28.9043" rx="2.28571" fill="url(#paint2_linear_1522_25527)"/>
<rect x="10.0002" y="17" width="20" height="3" rx="1.5" fill="url(#paint3_linear_1522_25527)"/>
<rect x="10.0002" y="22" width="15" height="3" rx="1.5" fill="url(#paint4_linear_1522_25527)"/>
<rect x="10.0002" y="27" width="10" height="3" rx="1.5" fill="url(#paint5_linear_1522_25527)"/>
<g filter="url(#filter1_bd_1522_25527)">
<circle cx="29.0002" cy="30" r="10" fill="white" fill-opacity="0.35" shape-rendering="crispEdges"/>
<circle cx="29.0002" cy="30" r="9.62312" stroke="url(#paint6_linear_1522_25527)" stroke-width="0.753762" shape-rendering="crispEdges"/>
</g>
<g filter="url(#filter2_d_1522_25527)">
<path d="M30.8543 25.8556H29.6177V24.619C29.6177 24.277 29.3407 24 28.9987 24C28.6567 24 28.3796 24.277 28.3796 24.619V25.8556H27.1431C24.5787 25.8556 22.5002 27.934 22.5002 30.4985C22.5002 33.0629 24.5787 35.1413 27.1431 35.1413H30.8574C33.4218 35.1413 35.5002 33.0629 35.5002 30.4985C35.5002 27.934 33.4171 25.8556 30.8543 25.8556ZM27.6043 30.808H26.8305V31.5818C26.8305 31.8371 26.6231 32.0461 26.3662 32.0461C26.1108 32.0461 25.9019 31.8387 25.9019 31.5818V30.808H25.1281C24.8727 30.808 24.6638 30.6006 24.6638 30.3437C24.6638 30.0883 24.8712 29.8794 25.1281 29.8794H25.9019V29.1056C25.9019 28.8502 26.1093 28.6413 26.3662 28.6413C26.6216 28.6413 26.8305 28.8487 26.8305 29.1056V29.8794H27.6043C27.8596 29.8794 28.0686 30.0868 28.0686 30.3437C28.067 30.6006 27.8596 30.808 27.6043 30.808ZM31.0091 30.1889C30.5804 30.1889 30.2352 29.8438 30.2352 29.4151C30.2352 28.9864 30.5804 28.6413 31.0091 28.6413C31.4377 28.6413 31.7829 28.9864 31.7829 29.4151C31.7829 29.8423 31.4362 30.1889 31.0091 30.1889ZM32.5567 32.0445C32.128 32.0445 31.7829 31.6994 31.7829 31.2707C31.7829 30.842 32.128 30.4969 32.5567 30.4969C32.9854 30.4969 33.3305 30.842 33.3305 31.2707C33.3305 31.6994 32.9838 32.0445 32.5567 32.0445Z" fill="url(#paint7_linear_1522_25527)"/>
</g>
</g>
<g filter="url(#filter3_d_1522_25527)">
<rect x="2.3" y="1.3" width="39.4" height="39.4" rx="19.7" stroke="url(#paint8_linear_1522_25527)" stroke-width="0.6" shape-rendering="crispEdges"/>
</g>
<defs>
<filter id="filter0_d_1522_25527" x="0" y="0" width="44" height="44" filterUnits="userSpaceOnUse" color-interpolation-filters="sRGB">
<feFlood flood-opacity="0" result="BackgroundImageFix"/>
<feColorMatrix in="SourceAlpha" type="matrix" values="0 0 0 0 0 0 0 0 0 0 0 0 0 0 0 0 0 0 127 0" result="hardAlpha"/>
<feOffset dy="1"/>
<feGaussianBlur stdDeviation="1"/>
<feComposite in2="hardAlpha" operator="out"/>
<feColorMatrix type="matrix" values="0 0 0 0 0.741176 0 0 0 0 0.564706 0 0 0 0 0.996078 0 0 0 1 0"/>
<feBlend mode="normal" in2="BackgroundImageFix" result="effect1_dropShadow_1522_25527"/>
<feBlend mode="normal" in="SourceGraphic" in2="effect1_dropShadow_1522_25527" result="shape"/>
</filter>
<filter id="filter1_bd_1522_25527" x="15.9852" y="16.985" width="26.0301" height="27.015" filterUnits="userSpaceOnUse" color-interpolation-filters="sRGB">
<feFlood flood-opacity="0" result="BackgroundImageFix"/>
<feGaussianBlur in="BackgroundImageFix" stdDeviation="1.50752"/>
<feComposite in2="SourceAlpha" operator="in" result="effect1_backgroundBlur_1522_25527"/>
<feColorMatrix in="SourceAlpha" type="matrix" values="0 0 0 0 0 0 0 0 0 0 0 0 0 0 0 0 0 0 127 0" result="hardAlpha"/>
<feOffset dy="1"/>
<feGaussianBlur stdDeviation="1.5"/>
<feComposite in2="hardAlpha" operator="out"/>
<feColorMatrix type="matrix" values="0 0 0 0 0.521569 0 0 0 0 0.411765 0 0 0 0 0.764706 0 0 0 0.85 0"/>
<feBlend mode="normal" in2="effect1_backgroundBlur_1522_25527" result="effect2_dropShadow_1522_25527"/>
<feBlend mode="normal" in="SourceGraphic" in2="effect2_dropShadow_1522_25527" result="shape"/>
</filter>
<filter id="filter2_d_1522_25527" x="20.5002" y="24" width="17" height="15.1411" filterUnits="userSpaceOnUse" color-interpolation-filters="sRGB">
<feFlood flood-opacity="0" result="BackgroundImageFix"/>
<feColorMatrix in="SourceAlpha" type="matrix" values="0 0 0 0 0 0 0 0 0 0 0 0 0 0 0 0 0 0 127 0" result="hardAlpha"/>
<feOffset dy="2"/>
<feGaussianBlur stdDeviation="1"/>
<feComposite in2="hardAlpha" operator="out"/>
<feColorMatrix type="matrix" values="0 0 0 0 0.855556 0 0 0 0 0.5125 0 0 0 0 1 0 0 0 1 0"/>
<feBlend mode="normal" in2="BackgroundImageFix" result="effect1_dropShadow_1522_25527"/>
<feBlend mode="normal" in="SourceGraphic" in2="effect1_dropShadow_1522_25527" result="shape"/>
</filter>
<filter id="filter3_d_1522_25527" x="0" y="0" width="44" height="44" filterUnits="userSpaceOnUse" color-interpolation-filters="sRGB">
<feFlood flood-opacity="0" result="BackgroundImageFix"/>
<feColorMatrix in="SourceAlpha" type="matrix" values="0 0 0 0 0 0 0 0 0 0 0 0 0 0 0 0 0 0 127 0" result="hardAlpha"/>
<feOffset dy="1"/>
<feGaussianBlur stdDeviation="1"/>
<feComposite in2="hardAlpha" operator="out"/>
<feColorMatrix type="matrix" values="0 0 0 0 0.741176 0 0 0 0 0.564706 0 0 0 0 0.996078 0 0 0 1 0"/>
<feBlend mode="normal" in2="BackgroundImageFix" result="effect1_dropShadow_1522_25527"/>
<feBlend mode="normal" in="SourceGraphic" in2="effect1_dropShadow_1522_25527" result="shape"/>
</filter>
<linearGradient id="paint0_linear_1522_25527" x1="22" y1="1" x2="22" y2="41" gradientUnits="userSpaceOnUse">
<stop stop-color="#F9F8FF"/>
<stop offset="1" stop-color="#CFB7FF"/>
</linearGradient>
<linearGradient id="paint1_linear_1522_25527" x1="22" y1="1" x2="22" y2="41" gradientUnits="userSpaceOnUse">
<stop stop-color="#F0EDFE"/>
<stop offset="1" stop-color="#BEA2F7"/>
</linearGradient>
<linearGradient id="paint2_linear_1522_25527" x1="7.37433" y1="11.2456" x2="34.3885" y2="42.1078" gradientUnits="userSpaceOnUse">
<stop stop-color="#FD9AFF"/>
<stop offset="1" stop-color="#9882FD"/>
</linearGradient>
<linearGradient id="paint3_linear_1522_25527" x1="10.5002" y1="18.5" x2="30.0002" y2="18.5" gradientUnits="userSpaceOnUse">
<stop stop-color="white"/>
<stop offset="1" stop-color="white" stop-opacity="0"/>
</linearGradient>
<linearGradient id="paint4_linear_1522_25527" x1="10.3752" y1="23.5" x2="25.0002" y2="23.5" gradientUnits="userSpaceOnUse">
<stop stop-color="white"/>
<stop offset="1" stop-color="white" stop-opacity="0"/>
</linearGradient>
<linearGradient id="paint5_linear_1522_25527" x1="10.2502" y1="28.5" x2="20.0002" y2="28.5" gradientUnits="userSpaceOnUse">
<stop stop-color="white"/>
<stop offset="1" stop-color="white" stop-opacity="0"/>
</linearGradient>
<linearGradient id="paint6_linear_1522_25527" x1="29.0002" y1="20" x2="29.0002" y2="40" gradientUnits="userSpaceOnUse">
<stop stop-color="white" stop-opacity="0"/>
<stop offset="0.520833" stop-color="white"/>
<stop offset="1" stop-color="white" stop-opacity="0"/>
</linearGradient>
<linearGradient id="paint7_linear_1522_25527" x1="29.0002" y1="24" x2="29.0002" y2="35.1413" gradientUnits="userSpaceOnUse">
<stop stop-color="white"/>
<stop offset="1" stop-color="#F6AFFF"/>
</linearGradient>
<linearGradient id="paint8_linear_1522_25527" x1="22" y1="1" x2="22" y2="41" gradientUnits="userSpaceOnUse">
<stop stop-color="white" stop-opacity="0"/>
<stop offset="1" stop-color="white"/>
</linearGradient>
</defs>
</svg>
